<svg width="30" height="25" viewBox="0 0 30 25" fill="none" xmlns="http://www.w3.org/2000/svg">
<path d="M2.07842 22.7549C1.51552 22.7549 1.02478 22.5425 0.613423 22.1101C0.202069 21.6778 0 21.162 0 20.5704V2.18447C0 1.59284 0.202069 1.07706 0.613423 0.644721C1.02478 0.212379 1.51552 0 2.07842 0H25.338C25.9009 0 26.3916 0.212379 26.803 0.644721C27.2143 1.07706 27.4164 1.59284 27.4164 2.18447V10.1866H1.6382V20.5628C1.6382 20.6766 1.6815 20.7828 1.77532 20.8814C1.86914 20.98 1.97017 21.0255 2.07842 21.0255H15.4655V22.7473H2.07842V22.7549ZM1.63098 5.92385H25.7782V2.18447C25.7782 2.07069 25.7349 1.9645 25.6411 1.8659C25.5473 1.76729 25.4462 1.72178 25.338 1.72178H2.07842C1.97017 1.72178 1.86914 1.76729 1.77532 1.8659C1.6815 1.9645 1.6382 2.07069 1.6382 2.18447V5.91626L1.63098 5.92385Z" fill="#ED6536"/>
<path d="M25.1071 25L23.9669 23.8016L26.9113 20.7221H19.9543V19.0003H26.9113L23.9813 15.9133L25.1071 14.7148L30.0001 19.8574L25.1071 25Z" fill="#ED6536"/>
</svg>
