<svg width="24" height="30" viewBox="0 0 24 30" fill="none" xmlns="http://www.w3.org/2000/svg">
<path d="M10.2554 19.8183L18.8061 11.3695L17.5415 10.1269L10.3446 17.2508L6.45846 13.4041L5.12926 14.7198L10.2554 19.8183ZM12 30C8.52308 29.0558 5.65386 27.0076 3.39233 23.8553C1.13078 20.703 0 17.2122 0 13.3827V4.44669L12 0L24 4.44669V13.3827C24 17.2122 22.8692 20.703 20.6077 23.8553C18.3461 27.0076 15.4769 29.0558 12 30ZM12 28.1239C14.9846 27.1614 17.4282 25.3107 19.3308 22.5716C21.2333 19.8325 22.1846 16.7695 22.1846 13.3827V5.69842L12 1.90958L1.81537 5.69842V13.3827C1.81537 16.7695 2.76665 19.8325 4.66921 22.5716C6.57178 25.3107 9.01538 27.1614 12 28.1239Z" fill="#B478D9"/>
</svg>
