<svg width="31" height="31" viewBox="0 0 31 31" fill="none" xmlns="http://www.w3.org/2000/svg">
<path d="M15.3826 30.6249C12.5388 30.6249 9.86942 29.7878 7.37435 28.1135C4.87929 26.4392 2.97272 24.4195 1.65463 22.0543V27.2034H0V19.1826H8.0208V20.8372H2.87175C3.98045 23.0547 5.7066 24.9645 8.05022 26.5669C10.3938 28.1692 12.838 28.9703 15.3826 28.9703C17.2223 28.9703 18.9587 28.6268 20.5919 27.9397C22.225 27.2526 23.6558 26.3112 24.8842 25.1156C26.1125 23.9199 27.096 22.5102 27.8345 20.8864C28.573 19.2626 28.9703 17.5262 29.0264 15.6771H30.681C30.6343 17.7486 30.201 19.6912 29.3811 21.5048C28.5613 23.3183 27.4619 24.9029 26.0831 26.2584C24.7042 27.6138 23.0963 28.6805 21.2594 29.4583C19.4224 30.236 17.4635 30.6249 15.3826 30.6249ZM14.5356 25.4254V23.5268C13.5073 23.2632 12.6295 22.8397 11.9022 22.2564C11.1749 21.673 10.5608 20.8597 10.0597 19.8165L11.5124 19.2948C11.8601 20.1998 12.4023 20.9102 13.139 21.4263C13.8756 21.9423 14.7039 22.2003 15.6237 22.2003C16.5866 22.2003 17.4228 21.9586 18.1324 21.4753C18.8419 20.992 19.1967 20.3007 19.1967 19.4014C19.1967 18.5713 18.9092 17.8921 18.3343 17.3639C17.7594 16.8358 16.6624 16.2407 15.0433 15.5789C13.5195 14.9712 12.4047 14.3337 11.6989 13.6662C10.9931 12.9988 10.6402 12.0976 10.6402 10.9627C10.6402 9.96807 10.9908 9.10335 11.6919 8.36857C12.393 7.63379 13.3652 7.18133 14.6086 7.01119V5.22193H16.2071V7.01119C17.0559 7.08972 17.8112 7.35334 18.4731 7.80205C19.135 8.25078 19.6725 8.86309 20.0857 9.639L18.7143 10.2812C18.3404 9.65673 17.886 9.17903 17.3513 8.84811C16.8166 8.51719 16.1847 8.35173 15.4555 8.35173C14.4795 8.35173 13.6971 8.59385 13.1081 9.07809C12.5192 9.56233 12.2247 10.1905 12.2247 10.9627C12.2247 11.7592 12.5033 12.3837 13.0604 12.8361C13.6176 13.2886 14.6478 13.8111 16.151 14.4038C17.8468 15.09 19.0401 15.7986 19.7309 16.5296C20.4218 17.2606 20.7672 18.2179 20.7672 19.4014C20.7672 20.0371 20.6461 20.6054 20.404 21.1065C20.1619 21.6076 19.8356 22.0334 19.4252 22.384C19.0148 22.7345 18.5273 23.0136 17.9627 23.2211C17.3981 23.4286 16.7885 23.5548 16.1342 23.5997V25.4254H14.5356ZM0.0841459 14.9478C0.149601 12.8295 0.59692 10.8613 1.4261 9.04302C2.25529 7.22479 3.36399 5.64261 4.7522 4.29647C6.14043 2.95033 7.746 1.89772 9.56889 1.13863C11.3918 0.379543 13.3297 0 15.3826 0C18.1983 0 20.8677 0.839489 23.3908 2.51847C25.9139 4.19742 27.8205 6.23349 29.1105 8.62666V3.42154H30.7651V11.4423H22.7443V9.78771H27.8934C26.8127 7.61701 25.1044 5.71882 22.7682 4.09314C20.4321 2.46746 17.9702 1.65462 15.3826 1.65462C13.5802 1.65462 11.8625 1.99349 10.2293 2.67123C8.59619 3.34899 7.1631 4.28101 5.93006 5.46729C4.69704 6.6536 3.70425 8.05864 2.9517 9.68242C2.19918 11.3062 1.79487 13.0614 1.73877 14.9478H0.0841459Z" fill="#003F6C"/>
</svg>
