<svg width="38" height="18" viewBox="0 0 38 18" fill="none" xmlns="http://www.w3.org/2000/svg">
<path d="M4.13605e-05 18V16.2198C4.13605e-05 15.1709 0.547587 14.3081 1.64268 13.6315C2.73777 12.9548 4.16529 12.6165 5.92525 12.6165C6.20727 12.6165 6.4976 12.6264 6.79623 12.6462C7.09484 12.666 7.39559 12.6996 7.69849 12.7469C7.50997 13.2104 7.36594 13.6752 7.2664 14.1411C7.16686 14.6071 7.11709 15.0842 7.11709 15.5725V18H0H4.13605e-05ZM9.91306 18V15.6385C9.91306 14.8345 10.1302 14.0995 10.5644 13.4336C10.9987 12.7678 11.6246 12.1871 12.4422 11.6917C13.2598 11.1963 14.2257 10.8248 15.3398 10.577C16.454 10.3293 17.6719 10.2055 18.9936 10.2055C20.3408 10.2055 21.5714 10.3293 22.6856 10.577C23.7997 10.8248 24.7656 11.1963 25.5833 11.6917C26.4009 12.1871 27.0225 12.7678 27.4483 13.4336C27.8741 14.0995 28.0869 14.8345 28.0869 15.6385V18H9.91306ZM30.8829 18V15.5774C30.8829 15.0631 30.84 14.5731 30.7543 14.1075C30.6685 13.642 30.526 13.1895 30.3269 12.7501C30.651 12.7007 30.9589 12.666 31.2506 12.6462C31.5424 12.6264 31.8275 12.6165 32.1062 12.6165C33.8696 12.6165 35.2927 12.9484 36.3756 13.6122C37.4585 14.276 38 15.1452 38 16.2198V18H30.8829ZM11.7717 16.0514H26.2283V15.6782C26.2601 14.6301 25.6098 13.7807 24.2774 13.1301C22.9451 12.4794 21.186 12.1541 19 12.1541C16.8246 12.1541 15.0681 12.4794 13.7305 13.1301C12.3929 13.7807 11.7399 14.6389 11.7717 15.7046V16.0514ZM5.88762 11.2624C5.19913 11.2624 4.6097 11.0056 4.11933 10.492C3.62899 9.97842 3.38382 9.35998 3.38382 8.63667C3.38382 7.91666 3.63085 7.30178 4.12491 6.79204C4.61896 6.28233 5.2139 6.02748 5.90971 6.02748C6.60233 6.02748 7.19647 6.28233 7.69213 6.79204C8.18778 7.30178 8.43561 7.92449 8.43561 8.66016C8.43561 9.36448 8.19068 9.97427 7.70084 10.4895C7.21103 11.0047 6.60662 11.2624 5.88762 11.2624ZM32.0883 11.2624C31.4076 11.2624 30.8194 11.0038 30.3237 10.4868C29.8281 9.96978 29.5803 9.35471 29.5803 8.64157C29.5803 7.91829 29.829 7.30178 30.3263 6.79204C30.8237 6.28233 31.418 6.02748 32.1092 6.02748C32.8104 6.02748 33.4062 6.28233 33.8965 6.79204C34.3869 7.30178 34.6321 7.92284 34.6321 8.65522C34.6321 9.36974 34.3876 9.98288 33.8986 10.4947C33.4095 11.0065 32.8061 11.2624 32.0883 11.2624ZM19.0056 8.91739C17.8157 8.91739 16.8024 8.48391 15.9657 7.61694C15.1291 6.74997 14.7107 5.69721 14.7107 4.45867C14.7107 3.19537 15.1277 2.13644 15.9618 1.28186C16.7958 0.427287 17.8085 0 19 0C20.2153 0 21.234 0.426728 22.0561 1.28019C22.8782 2.13365 23.2893 3.19121 23.2893 4.45288C23.2893 5.68978 22.8787 6.7431 22.0577 7.61281C21.2367 8.48253 20.2193 8.91739 19.0056 8.91739ZM19.0224 6.96881C19.7022 6.96881 20.2709 6.72599 20.7284 6.24036C21.1859 5.75469 21.4147 5.15302 21.4147 4.43536C21.4147 3.72871 21.1845 3.13758 20.7243 2.66196C20.264 2.18637 19.694 1.94858 19.0145 1.94858C18.3376 1.94858 17.7635 2.18782 17.2922 2.6663C16.8209 3.14481 16.5853 3.73726 16.5853 4.44365C16.5853 5.14726 16.8189 5.74403 17.2861 6.23396C17.7533 6.72386 18.332 6.96881 19.0224 6.96881Z" fill="#8784DF"/>
</svg>
