<svg width="54" height="55" viewBox="0 0 54 55" fill="none" xmlns="http://www.w3.org/2000/svg">
<g opacity="0.2">
<rect width="54" height="54.1875" rx="10" fill="url(#paint0_linear_5_1172)"/>
</g>
<path d="M26.3693 37.4362H28.1846V35.8573H30.7693C31.0269 35.8573 31.2426 35.7716 31.4164 35.6001C31.5901 35.4287 31.6769 35.2158 31.6769 34.9615V29.9362C31.6769 29.6819 31.5901 29.4691 31.4164 29.2976C31.2426 29.1262 31.0269 29.0405 30.7693 29.0405H24.6923V25.8067H31.6769V24.0152H28.1846V22.4362H26.3693V24.0152H23.7846C23.5269 24.0152 23.3113 24.1009 23.1375 24.2723C22.9638 24.4438 22.8769 24.6566 22.8769 24.9109V29.9362C22.8769 30.1905 22.9638 30.4034 23.1375 30.5748C23.3113 30.7462 23.5269 30.832 23.7846 30.832H29.8616V34.0658H22.8769V35.8573H26.3693V37.4362ZM17.3077 42C16.6803 42 16.1388 41.7752 15.6833 41.3257C15.2278 40.8762 15 40.3418 15 39.7226V14.2774C15 13.6582 15.2278 13.1238 15.6833 12.6743C16.1388 12.2248 16.6803 12 17.3077 12H31.2093L39 19.6882V39.7226C39 40.3418 38.7722 40.8762 38.3167 41.3257C37.8612 41.7752 37.3197 42 36.6923 42H17.3077ZM29.717 19.9008V13.7915H17.3077C17.1846 13.7915 17.0718 13.8421 16.9692 13.9433C16.8666 14.0445 16.8154 14.1559 16.8154 14.2774V39.7226C16.8154 39.8441 16.8666 39.9555 16.9692 40.0567C17.0718 40.1579 17.1846 40.2085 17.3077 40.2085H36.6923C36.8154 40.2085 36.9282 40.1579 37.0308 40.0567C37.1334 39.9555 37.1846 39.8441 37.1846 39.7226V19.9008H29.717Z" fill="#0D7AFF"/>
<defs>
<linearGradient id="paint0_linear_5_1172" x1="56" y1="50.4795" x2="56" y2="-17.0205" gradientUnits="userSpaceOnUse">
<stop stop-color="#0D7AFF"/>
<stop offset="1" stop-color="#0D7AFF" stop-opacity="0"/>
</linearGradient>
</defs>
</svg>
