<svg width="24" height="30" viewBox="0 0 24 30" fill="none" xmlns="http://www.w3.org/2000/svg">
<path d="M5.93016 23.7905H17.8882V21.999H5.93016V23.7905ZM5.93016 17.1862H17.8882V15.3948H5.93016V17.1862ZM2.29027 30C1.66757 30 1.13019 29.7752 0.678111 29.3257C0.226037 28.8762 0 28.3418 0 27.7226V2.27736C0 1.65818 0.226037 1.12382 0.678111 0.674291C1.13019 0.224763 1.66757 0 2.29027 0H16.0866L23.8184 7.68823V27.7226C23.8184 28.3418 23.5924 28.8762 23.1403 29.3257C22.6882 29.7752 22.1508 30 21.5281 30H2.29027ZM15.1858 8.4959V1.79148H2.29027C2.1681 1.79148 2.05612 1.84208 1.95431 1.94329C1.85252 2.04453 1.80163 2.15589 1.80163 2.27736V27.7226C1.80163 27.8441 1.85252 27.9555 1.95431 28.0567C2.05612 28.1579 2.1681 28.2085 2.29027 28.2085H21.5281C21.6503 28.2085 21.7623 28.1579 21.8641 28.0567C21.9659 27.9555 22.0168 27.8441 22.0168 27.7226V8.4959H15.1858Z" fill="#1D6D4F"/>
</svg>
