<svg width="33" height="24" viewBox="0 0 33 24" fill="none" xmlns="http://www.w3.org/2000/svg">
<path d="M18.2699 13.3979C17.1636 13.3979 16.2272 13.0148 15.4609 12.2484C14.6946 11.4821 14.3115 10.5458 14.3115 9.43945C14.3115 8.33313 14.6946 7.39681 15.4609 6.6305C16.2272 5.86418 17.1636 5.48103 18.2699 5.48103C19.3762 5.48103 20.3126 5.86418 21.0789 6.6305C21.8452 7.39681 22.2284 8.33313 22.2284 9.43945C22.2284 10.5458 21.8452 11.4821 21.0789 12.2484C20.3126 13.0148 19.3762 13.3979 18.2699 13.3979ZM6.6685 18.8789C6.04833 18.8789 5.51267 18.6533 5.0615 18.2022C4.61034 17.751 4.38476 17.2153 4.38476 16.5952V2.28374C4.38476 1.66357 4.61034 1.12791 5.0615 0.676746C5.51267 0.225582 6.04833 0 6.6685 0H29.8713C30.4914 0 31.0271 0.225582 31.4783 0.676746C31.9294 1.12791 32.155 1.66357 32.155 2.28374V16.5952C32.155 17.2153 31.9294 17.751 31.4783 18.2022C31.0271 18.6533 30.4914 18.8789 29.8713 18.8789H6.6685ZM9.6221 17.0824H26.9177C26.9177 16.1263 27.2528 15.3138 27.9229 14.6449C28.5931 13.976 29.405 13.6416 30.3585 13.6416V5.23734C29.4024 5.23734 28.5899 4.90227 27.921 4.23212C27.2522 3.56197 26.9177 2.75011 26.9177 1.79653H9.6221C9.6221 2.75264 9.28702 3.56514 8.61688 4.23402C7.94673 4.9029 7.13486 5.23734 6.18129 5.23734V13.6416C7.1374 13.6416 7.94989 13.9766 8.61878 14.6468C9.28766 15.3169 9.6221 16.1288 9.6221 17.0824ZM27.4353 23.2637H2.28374C1.66358 23.2637 1.12791 23.0381 0.676746 22.587C0.225582 22.1358 0 21.6001 0 20.98V4.71977H1.79649V20.98C1.79649 21.1018 1.84725 21.2134 1.94877 21.3149C2.05027 21.4164 2.16193 21.4672 2.28374 21.4672H27.4353V23.2637ZM6.6685 17.0824H6.18129V1.79653H6.6685C6.53655 1.79653 6.42236 1.84474 6.32593 1.94117C6.2295 2.0376 6.18129 2.15179 6.18129 2.28374V16.5952C6.18129 16.7271 6.2295 16.8413 6.32593 16.9377C6.42236 17.0342 6.53655 17.0824 6.6685 17.0824Z" fill="#54B7BE"/>
</svg>
