<svg width="454" height="485" viewBox="0 0 454 485" fill="none" xmlns="http://www.w3.org/2000/svg">
<g opacity="0.6">
<path d="M452.987 167.107C451.809 173.824 451.055 180.651 449.328 187.212C448.088 191.952 445.356 196.284 443.629 200.929C439.059 213.203 431.633 223.31 422.055 232.241C409.824 243.651 397.671 255.218 386.538 267.68C380.949 273.942 377.683 282.292 373.428 289.731C373.067 290.359 372.831 291.301 373.004 291.976C375.752 302.052 378.594 312.096 381.373 322.173C381.844 323.868 382.582 325.641 382.472 327.32C381.938 334.776 380.902 342.199 380.478 349.654C379.928 359.322 373.915 366.432 364.729 369.304C360.458 370.638 356.156 373.244 353 376.414C346.736 382.708 342.622 395.562 342.292 404.916C342.009 413.125 340.094 420.391 330.469 422.604C326.198 423.577 324.298 425.853 323.168 430.97C321.66 437.703 317.798 444.624 313.103 449.772C304.86 458.813 295.628 467.115 285.94 474.617C281.559 478.023 275.232 479.859 269.563 480.456C260.582 481.413 251.475 479.655 242.588 483.563C237.187 485.933 229.368 478.667 229.698 472.153C230.341 458.813 224.265 448.297 216.414 438.315C214.247 435.568 212.159 432.319 211.405 428.992C209.568 420.909 208.925 412.544 207.056 404.461C206.02 399.988 203.586 395.797 201.576 391.591C200.226 388.766 198.734 385.957 196.929 383.43C184.415 365.867 189.785 349.497 200.053 333.379C203.319 328.262 204.937 323.036 201.215 317.354C200.383 316.067 199.504 314.513 199.472 313.07C199.064 296.496 191.245 283.485 180.16 271.949C177.805 269.5 175.434 266.958 173.706 264.086C172.293 261.716 170.252 257.447 171.21 256.317C176.329 250.243 172.984 242.913 175.12 236.447C178.621 225.774 171.603 218.304 160.502 220.862C154.048 222.337 149.291 221.819 146.323 215.102C144.157 210.205 139.933 209.295 134.704 209.091C124.169 208.698 114.921 212.889 105.217 215.635C101.166 216.781 96.6913 216.357 92.4048 216.671C86.7837 217.079 80.7544 216.373 75.6201 218.178C63.4358 222.463 53.2299 220.517 43.8876 211.774C39.5069 207.678 34.1685 204.555 30.039 200.254C26.7417 196.817 24.308 192.438 22.0156 188.201C17.8233 180.4 13.1286 173.039 5.7804 167.876C2.42031 165.522 1.03859 162.806 1.33692 158.647C1.55674 155.445 0.598955 152.165 0.284927 148.901C0.143615 147.441 -0.327426 145.511 0.379136 144.553C7.66457 134.697 10.5222 123.726 9.43882 111.61C9.29751 110.071 10.114 108.047 9.39172 107.027C4.5871 100.215 8.70086 95.4437 12.6576 90.4371C20.7124 80.2511 28.5003 69.8767 36.7749 59.8633C38.612 57.6347 41.815 56.2692 44.6413 55.1235C53.3869 51.5764 60.5939 47.6056 62.1797 36.4622C62.9334 31.2515 67.6281 25.2247 72.26 22.3054C79.2314 17.9108 85.9673 13.9086 90.1438 6.5634C90.5992 5.76295 91.7611 5.37058 92.4833 4.86834C101.763 10.4087 110.948 13.3593 121.091 7.64635C130.559 2.32577 141.205 2.63967 151.552 1.77644C160.58 0.960309 169.656 0.206953 178.731 0.00291878C181.95 -0.0755558 185.2 1.44685 188.827 2.34146C184.964 8.24275 193.396 17.1889 183.159 20.2023C188.717 28.6932 197.62 28.5677 205.439 31.1416C209.129 32.3502 211.986 35.8501 215.598 37.5452C222.349 40.7155 229.289 43.5563 236.371 45.8164C237.25 46.0989 240.563 42.2379 240.987 39.9622C243.012 28.9914 250.204 26.4959 260.001 32.3502C265.23 35.4734 271.981 36.0698 278.089 37.6236C280.601 38.2671 283.302 38.1573 285.799 38.8165C291.906 40.4173 297.606 41.9241 303.792 37.8905C306.367 36.2111 310.842 37.3097 314.453 37.4353C316.495 37.4981 318.52 38.5183 320.546 38.5026C330.014 38.4398 337.079 49.7872 332.212 57.8858C331.411 59.2199 328.271 59.1414 325.554 59.9104C330.029 66.8633 335.886 73.8318 339.34 81.8205C344.475 93.733 357.601 101.549 356.831 116.538C356.722 118.672 359.94 121.011 361.699 123.192C363.96 126.002 367.383 128.387 368.388 131.558C371.183 140.394 377.008 145.762 384.858 150.093C389.789 152.824 394.311 156.732 398.11 160.923C399.885 162.885 399.508 166.809 400.371 171.25C404.407 174.782 408.41 178.972 417.329 174.766C427.645 169.885 439.672 168.582 450.945 165.71C451.636 166.165 452.327 166.62 453.018 167.075L452.987 167.107Z" fill="white"/>
<path d="M437.615 337.679C444.131 344.82 444.79 355.964 440.158 364.313C438.039 368.112 437.442 372.742 435.699 376.775C428.979 392.297 422.18 407.788 415.162 423.169C413.34 427.14 404.61 430.358 400.104 429.102C394.373 427.501 392.615 423.216 392.85 417.645C392.929 415.871 392.301 414.066 392.049 412.277C391.249 406.658 391.563 401.432 396.085 397.147C400.795 392.69 402.711 387.385 400.811 380.809C400.104 378.376 400.214 375.582 400.465 373.024C401.156 366.275 405.49 361.645 412.1 361.52C416.983 361.426 420.375 359.84 423.232 355.964C427.723 349.874 432.575 344.051 437.615 337.663V337.679Z" fill="white"/>
</g>
</svg>
