<svg width="146" height="35" viewBox="0 0 146 35" fill="none" xmlns="http://www.w3.org/2000/svg">
<g clip-path="url(#clip0_4_1588)">
<path d="M53.8563 35L52.0728 31.9054H14.0424L26.7685 9.12135L37.5709 27.7741H49.6584L33.6689 0H30.0785L44.2844 24.6795H39.37L25.0784 0H20.7481L0 35H3.61378L22.9055 2.45248L24.9538 5.9958L8.74629 35H53.8563Z" fill="#598FE8"/>
<path d="M86.0999 10.9626V29.0351H83.117L74.1526 15.5581V29.0351H71.1697V10.9626H74.1526L83.117 24.4164V10.9626H86.0999Z" fill="black"/>
<path d="M89.6279 10.9394C89.6279 9.87178 90.4613 9.04398 91.5361 9.04398C92.6109 9.04398 93.4208 9.87178 93.4208 10.9394C93.4208 12.0071 92.5875 12.8349 91.5361 12.8349C90.4846 12.8349 89.6279 12.0071 89.6279 10.9394ZM90.0173 14.7303H93.0003V29.0429H90.0173V14.7303Z" fill="black"/>
<path d="M96.9258 9.81763H99.9087V20.9814L105.135 14.7226H109.262L102.619 21.8943L109.262 29.0351H105.236L99.9009 22.8769V29.0351H96.918V9.81763H96.9258Z" fill="black"/>
<path d="M111.412 9.81763H114.395V20.9814L119.621 14.7226H123.749L117.105 21.8943L123.749 29.0351H119.722L114.387 22.8769V29.0351H111.404V9.81763H111.412Z" fill="black"/>
<path d="M125.898 9.81763H128.881V29.0351H125.898V9.81763Z" fill="black"/>
<path d="M138.998 29.275C134.87 29.275 131.81 26.366 131.81 21.8711C131.81 17.3762 134.738 14.4982 138.998 14.4982C143.258 14.4982 146.008 17.3298 146.008 21.5385C146.008 22.0336 145.984 22.4978 145.906 22.9929H134.902C135.112 25.3526 136.81 26.7838 139.006 26.7838C140.836 26.7838 141.857 25.9019 142.402 24.7878H145.618C144.808 27.279 142.534 29.2827 139.006 29.2827L138.998 29.275ZM134.917 20.6023H142.892C142.838 18.3974 141.085 16.9894 138.866 16.9894C136.856 16.9894 135.229 18.3433 134.917 20.6023Z" fill="black"/>
</g>
<defs>
<clipPath id="clip0_4_1588">
<rect width="146" height="35" fill="white"/>
</clipPath>
</defs>
</svg>
